<?xml version="1.0" encoding="UTF-8"?>
<svg id="Camada_1" data-name="Camada 1" xmlns="http://www.w3.org/2000/svg" viewBox="0 0 590.77 190.8">
  <defs>
    <style>
      .cls-1 {
        fill: #e52c28;
      }
    </style>
  </defs>
  <g>
    <polygon class="cls-1" points="89.93 44.87 70.47 25.41 19.46 76.42 0 95.88 19.46 115.34 94.91 190.8 114.37 171.34 38.91 95.88 89.93 44.87"/>
    <polygon class="cls-1" points="76.42 19.46 151.88 94.91 100.87 145.93 120.32 165.39 171.34 114.37 190.8 94.91 171.34 75.46 95.88 0 76.42 19.46"/>
  </g>
  <path class="cls-1" d="M138.95,95.4l-44.32,44.32-44.32-44.32s24.47,10.06,47.42,7.36,24.85-10.22,41.23-7.36Z"/>
  <g>
    <path class="cls-1" d="M215.87,87.41V23.97h11.62v51.83h38.74v11.62h-50.36Z"/>
    <path class="cls-1" d="M313.67,36.37c3.34,0,6.2,1.19,8.58,3.56s3.56,5.24,3.56,8.58v38.9h-39.69c-3.34,0-6.2-1.19-8.58-3.56s-3.56-5.24-3.56-8.58v-19.18h40.3v-7.57c0-.41-.21-.62-.62-.62h-39.69v-11.53h39.69ZM314.28,75.89v-8.18h-28.78v7.57c0,.41.21.62.62.62h28.16Z"/>
    <path class="cls-1" d="M345.7,36.37h28.34v11.53h-28.34c-.41,0-.62.21-.62.62v38.9h-11.53v-38.9c0-3.34,1.19-6.2,3.56-8.58s5.24-3.56,8.58-3.56Z"/>
    <path class="cls-1" d="M421.9,36.37c3.34,0,6.2,1.19,8.58,3.56s3.56,5.24,3.56,8.58v38.9h-39.69c-3.34,0-6.2-1.19-8.58-3.56s-3.56-5.24-3.56-8.58v-19.18h40.3v-7.57c0-.41-.21-.62-.62-.62h-39.69v-11.53h39.69ZM422.52,75.89v-8.18h-28.78v7.57c0,.41.21.62.62.62h28.16Z"/>
    <path class="cls-1" d="M491.86,36.37h13.29l-28.16,51.04h-10.56l-28.07-51.04h13.29l20.06,37.05,20.15-37.05Z"/>
    <path class="cls-1" d="M549.24,36.37c3.34,0,6.2,1.19,8.58,3.56s3.56,5.24,3.56,8.58v19.18h-40.3v7.57c0,.41.21.62.62.62h39.69v11.53h-39.69c-3.34,0-6.2-1.19-8.58-3.56s-3.56-5.24-3.56-8.58v-26.75c0-3.34,1.19-6.2,3.56-8.58s5.24-3.56,8.58-3.56h27.54ZM521.08,56.09h28.78v-7.57c0-.41-.21-.62-.62-.62h-27.54c-.41,0-.62.21-.62.62v7.57Z"/>
    <path class="cls-1" d="M568.33,19.65h11.62v55.62c0,.41.18.62.53.62h10.3v11.53h-10.3c-3.34,0-6.2-1.19-8.58-3.56s-3.56-5.24-3.56-8.58V19.65Z"/>
    <path class="cls-1" d="M215.87,167.56v-63.45h11.62v51.83h38.74v11.62h-50.36Z"/>
    <path class="cls-1" d="M313.66,116.52c3.34,0,6.2,1.19,8.58,3.56s3.56,5.24,3.56,8.58v38.9h-39.69c-3.34,0-6.2-1.19-8.58-3.56s-3.56-5.24-3.56-8.58v-19.18h40.3v-7.57c0-.41-.21-.62-.62-.62h-39.69v-11.53h39.69ZM314.28,156.03v-8.18h-28.78v7.57c0,.41.21.62.62.62h28.16Z"/>
    <path class="cls-1" d="M373.24,116.52c3.34,0,6.2,1.19,8.58,3.56,2.38,2.38,3.56,5.24,3.56,8.58v26.75c0,3.34-1.19,6.2-3.56,8.58-2.38,2.38-5.24,3.56-8.58,3.56h-39.69v-67.76h11.53v16.72h28.16ZM373.86,155.41v-26.75c0-.41-.21-.62-.62-.62h-27.54c-.41,0-.62.21-.62.62v26.75c0,.41.21.62.62.62h27.54c.41,0,.62-.2.62-.62Z"/>
  </g>
</svg>